#!OML:ASF F:\VICON\USERDATA\INSTALL\rory3\rory3.ASF
:FULLY-SPECIFIED
:DEGREES
451
root -6.97028 15.9912 20.6163 400.034 101.714 16.9713
lowerback -10.6428 1.45455 -2.4376
upperback -12.8319 2.92901 -3.23102
thorax -7.59642 1.94846 -2.01084
lowerneck -8.43898 -14.0753 -12.8932
upperneck 26.6694 -21.4098 15.2293
head 13.6105 -8.95082 4.62013
rclavicle -4.57205e-015 3.18055e-015
rhumerus -17.4554 -12.4509 -67.9673
rradius 99.3708
rwrist -22.7726
rhand -3.84224 15.4186
rfingers 7.12502
rthumb 21.9054 -13.3613
lclavicle -4.57205e-015 3.18055e-015
lhumerus -214.004 -189.097 214.647
lradius 97.5419
lwrist 7.65989
lhand -12.309 12.8584
lfingers 7.12502
lthumb 13.7592 42.3834
rfemur 109.481 -172.997 -156.883
rtibia 47.1417
rfoot -27.1454 -43.4753
rtoes 36.4352
lfemur -39.311 -9.13583 -26.7371
ltibia 49.8989
lfoot -43.4279 28.3578
ltoes 5.86355
452
root -6.92854 15.9731 20.6762 401.139 100.446 18.2181
lowerback -10.3934 1.18752 -2.53988
upperback -12.8125 2.55 -2.94754
thorax -7.7356 1.76802 -1.67742
lowerneck -7.93089 -14.2415 -13.1681
upperneck 26.6575 -21.6219 15.0842
head 13.5513 -9.12684 4.58842
rclavicle -5.36719e-015 -6.36111e-015
rhumerus -18.3601 -13.8408 -67.7166
rradius 97.4849
rwrist -20.6616
rhand -7.39216 16.8897
rfingers 7.12502
rthumb 18.4936 -12.2512
lclavicle -5.36719e-015 -6.36111e-015
lhumerus -215.874 -189.839 214.591
lradius 96.5885
lwrist 5.81089
lhand -16.5135 13.251
lfingers 7.12502
lthumb 9.70479 43.0074
rfemur 109.671 -173.453 -158.776
rtibia 47.1934
rfoot -33.6626 -43.7402
rtoes 40.7892
lfemur -39.0027 -8.62917 -26.7447
ltibia 50.1997
lfoot -45.1122 25.3581
ltoes 11.3013
453
root -6.88377 15.9588 20.7425 401.394 99.1553 18.4858
lowerback -10.462 0.793613 -2.73087
upperback -12.5979 2.00626 -2.81355
thorax -7.47047 1.49885 -1.43268
lowerneck -7.84814 -14.3191 -13.543
upperneck 26.7291 -21.8139 15.4071
head 13.7055 -9.22161 4.73498
rclavicle 2.16675e-014 -2.06736e-014
rhumerus -18.7462 -15.1683 -67.9624
rradius 95.3729
rwrist -18.8563
rhand -11.4146 18.2252
rfingers 7.12502
rthumb 14.6211 -11.2394
lclavicle 2.16675e-014 -2.06736e-014
lhumerus -217.364 -190.857 214.044
lradius 95.3868
lwrist 4.76801
lhand -20.1206 12.9982
lfingers 7.12502
lthumb 6.22341 42.8868
rfemur 109.766 -173.745 -160.674
rtibia 47.1362
rfoot -37.9542 -44.3827
rtoes 42.6076
lfemur -38.8356 -7.85301 -27.0124
ltibia 50.4932
lfoot -44.351 25.4533
ltoes 7.91379
454
root -6.83896 15.959 20.8176 401.544 98.0106 18.7511
lowerback -9.97288 0.191867 -3.34274
upperback -12.7361 1.21098 -2.28589
thorax -7.92904 1.17455 -0.58121
lowerneck -7.58329 -14.2104 -13.873
upperneck 27.1376 -21.6104 15.1465
head 13.791 -9.19852 4.75435
rclavicle 1.59028e-015 -1.74931e-014
rhumerus -19.5748 -15.8387 -67.8656
rradius 93.1362
rwrist -17.1231
rhand -15.0872 19.9569
rfingers 7.12502
rthumb 11.0806 -9.73054
lclavicle 1.59028e-015 -1.74931e-014
lhumerus -219.744 -191.313 213.276
lradius 94.2245
lwrist 4.41102
lhand -23.5897 12.7315
lfingers 7.12502
lthumb 2.87358 42.6919
rfemur 110.062 -174.258 -162.649
rtibia 46.9308
rfoot -41.7278 -45.8515
rtoes 43.0147
lfemur -38.5684 -6.74881 -27.1714
ltibia 50.7652
lfoot -42.6836 25.826
ltoes 1.95739
455
root -6.79317 15.9642 20.8836 400.923 96.7664 18.3293
lowerback -10.0161 0.123927 -3.49115
upperback -12.4204 1.08962 -2.34401
thorax -7.54891 1.0972 -0.548127
lowerneck -7.36072 -14.4507 -14.001
upperneck 27.0151 -21.9683 15.1427
head 13.7768 -9.39456 4.70099
rclavicle 1.59028e-014 3.18055e-015
rhumerus -20.2882 -17.741 -67.3461
rradius 90.6649
rwrist -15.7415
rhand -18.455 22.402
rfingers 7.12502
rthumb 7.83115 -7.43294
lclavicle 1.59028e-014 3.18055e-015
lhumerus -220.035 -191.292 212.993
lradius 92.6384
lwrist 4.31742
lhand -26.7778 13.8733
lfingers 7.12502
lthumb -0.205496 43.8529
rfemur 110.431 -174.44 -164.429
rtibia 46.6601
rfoot -45.3623 -46.8388
rtoes 43.5416
lfemur -38.1339 -5.99496 -27.3518
ltibia 51.0132
lfoot -41.5505 25.3837
ltoes -1.96988
456
root -6.74227 15.9647 20.9469 399.839 95.5354 17.5457
lowerback -9.85726 -0.023043 -3.77151
upperback -12.2015 0.867109 -2.28978
thorax -7.3949 0.990236 -0.335718
lowerneck -7.05379 -14.5637 -14.5696
upperneck 27.1181 -22.1503 15.3052
head 13.9009 -9.53219 4.83026
rclavicle -1.73937e-014 7.95139e-015
rhumerus -21.1079 -19.2431 -66.6494
rradius 88.1133
rwrist -15.26
rhand -21.7084 25.1026
rfingers 7.12502
rthumb 4.69032 -4.82548
lclavicle -1.73937e-014 7.95139e-015
lhumerus -221.425 -191.246 213.139
lradius 92.181
lwrist 3.45988
lhand -28.702 15.2807
lfingers 7.12502
lthumb -2.06393 45.2504
rfemur 110.937 -174.269 -165.894
rtibia 46.3173
rfoot -48.5854 -47.1194
rtoes 44.4385
lfemur -37.5271 -5.70681 -27.4039
ltibia 51.2947
lfoot -40.5713 24.9334
ltoes -6.09463
